<svg width="800" height="320" viewBox="0 0 800 320" fill="none" xmlns="http://www.w3.org/2000/svg">
<g opacity="0.1" clip-path="url(#clip0_425_904)">
<path d="M579.471 52.9075H540.224V267.229H579.471V52.9075Z" fill="#0061C7"/>
<path d="M76.9829 175.355H122.617L99.7999 116.142L76.9829 175.355ZM116.124 52.9075L200.189 267.229H158.073L137.355 213.535H62.2296L41.5116 267.229H0L83.4762 52.9075H116.124Z" fill="#0061C7"/>
<path d="M414.799 91.0571H504.662V52.9075H375.567V267.214H506.459V229.049H414.799V91.0571Z" fill="#0061C7"/>
<path d="M500.072 138.37H464.283V176.535H500.072V138.37Z" fill="#0061C7"/>
<path d="M279.482 49.4902C238.786 49.4902 214.459 79.9888 214.459 109.474C214.459 149.801 247.152 164.877 273.412 177.003C295.821 187.361 307.524 193.485 307.524 208.923C307.524 224.361 292.257 232.466 278.063 232.466C252.376 232.466 241.806 208.379 237.729 198.641L204.779 218.389C208.177 226.841 226.283 270.631 278.063 270.631C318.2 270.631 347.344 244.684 347.344 208.938C347.344 170.91 322.957 156.621 293.48 143.118C265.907 130.462 253.705 124.247 253.705 109.504C253.705 98.9199 262.735 87.6701 279.482 87.6701C280.675 87.6701 281.823 87.7306 282.955 87.8364L286.277 49.7927C284.073 49.6112 281.808 49.5054 279.482 49.5054V49.4902Z" fill="#0061C7"/>
<path d="M715.572 232.466C674.937 232.466 650.64 195.647 650.64 160.053C650.64 124.459 674.937 87.6398 715.572 87.6398C747.344 87.6398 762.52 105.603 770.086 114.101L797.765 87.6549C790.351 80.0341 765.208 49.4751 715.572 49.4751C655.215 49.4751 609.687 97.0147 609.687 160.038C609.687 223.061 655.2 270.601 715.572 270.601C727.396 270.601 738.042 268.65 747.465 265.611L733.074 229.956C727.728 231.498 721.885 232.436 715.572 232.436V232.466Z" fill="#0061C7"/>
<path d="M579.471 0H540.225V52.9226H579.471V0Z" fill="#45D6AC"/>
<path d="M464.284 138.4H414.799V176.565H464.284V138.4Z" fill="#45D6AC"/>
<path d="M200.204 267.183L220.967 320H178.459L158.088 267.183H200.204Z" fill="#45D6AC"/>
<path d="M316.841 111.636L346.816 87.4885C341.878 80.1096 322.957 52.8771 286.293 49.8076L282.97 87.8514C301.016 89.5903 312.1 104.575 316.856 111.636H316.841Z" fill="#45D6AC"/>
<path d="M800 230.44L773.151 203.086C768.153 207.759 754.577 223.802 733.074 230.016L747.465 265.671C777.576 255.948 795.334 235.037 800 230.455V230.44Z" fill="#45D6AC"/>
</g>
<defs>
<clipPath id="clip0_425_904">
<rect width="800" height="320" fill="white"/>
</clipPath>
</defs>
</svg>
