<svg width="32" height="32" viewBox="0 0 32 32" fill="none" xmlns="http://www.w3.org/2000/svg">
<path d="M6.66667 29.3334C5.93333 29.3334 5.30556 29.0722 4.78333 28.55C4.26111 28.0278 4 27.4 4 26.6667V8.00002C4 7.26669 4.26111 6.63891 4.78333 6.11669C5.30556 5.59446 5.93333 5.33335 6.66667 5.33335H8V4.00002C8 3.62224 8.12778 3.30558 8.38333 3.05002C8.63889 2.79446 8.95556 2.66669 9.33333 2.66669C9.71111 2.66669 10.0278 2.79446 10.2833 3.05002C10.5389 3.30558 10.6667 3.62224 10.6667 4.00002V5.33335H21.3333V4.00002C21.3333 3.62224 21.4611 3.30558 21.7167 3.05002C21.9722 2.79446 22.2889 2.66669 22.6667 2.66669C23.0444 2.66669 23.3611 2.79446 23.6167 3.05002C23.8722 3.30558 24 3.62224 24 4.00002V5.33335H25.3333C26.0667 5.33335 26.6944 5.59446 27.2167 6.11669C27.7389 6.63891 28 7.26669 28 8.00002V26.6667C28 27.4 27.7389 28.0278 27.2167 28.55C26.6944 29.0722 26.0667 29.3334 25.3333 29.3334H6.66667ZM6.66667 26.6667H25.3333V13.3334H6.66667V26.6667Z" fill="white"/>
</svg>
